{
.appVersion = "3236";
.formatVersion = 3;
DisplayStrings = (
"THE QUICK BROWN FOX JUMPS 
OVER THE LAZY DOG",
"/zero.osf/two.osf/two.osf/three.osf/three.osf",
"HI THE",
ABCCDEFGHIJKLMNOOPQRSTUVWXYZ
);
axes = (
{
hidden = 1;
name = Width;
tag = wdth;
}
);
date = "2023-10-23 22:18:29 +0000";
familyName = "Night School";
featurePrefixes = (
{
automatic = 1;
code = "languagesystem DFLT dflt;
";
name = Languagesystems;
}
);
features = (
{
automatic = 1;
code = "feature case;
";
tag = aalt;
},
{
automatic = 1;
code = "sub zero.osf by zero.lf;
sub one.osf by one.lf;
sub two.osf by two.lf;
sub three.osf by three.lf;
sub four.osf by four.lf;
sub five.osf by five.lf;
sub six.osf by six.lf;
sub seven.osf by seven.lf;
sub eight.osf by eight.lf;
sub nine.osf by nine.lf;
";
tag = case;
}
);
fontMaster = (
{
axesValues = (
0
);
guides = (
{
pos = (62,125);
}
);
id = m01;
metricValues = (
{
over = 16;
pos = 800;
},
{
over = 16;
pos = 700;
},
{
over = 16;
pos = 500;
},
{
over = -16;
},
{
over = -16;
pos = -200;
}
);
name = Regular;
userData = {
GSCornerRadius = 15;
};
}
);
glyphs = (
{
glyphname = A;
lastChange = "2024-02-04 05:43:30 +0000";
layers = (
{
layerId = m01;
shapes = (
{
closed = 1;
nodes = (
(442,374,l),
(331,688,l),
(339,688,l),
(226,374,l),
(326,700,l),
(349,700,l)
);
},
{
closed = 1;
nodes = (
(157,125,ls),
(128,20,o),
(212,11,o),
(231,8,c),
(231,0,l),
(1,0,l),
(1,9,l),
(13,12,o),
(95,22,o),
(144,153,cs),
(224,369,l)
);
},
{
closed = 1;
nodes = (
(524,154,ls),
(573,22,o),
(652,12,o),
(664,9,c),
(664,0,l),
(434,0,l),
(434,8,l),
(453,11,o),
(538,21,o),
(510,125,cs),
(444,369,l)
);
}
);
width = 665;
},
{
associatedMasterId = m01;
layerId = "F06B5EA3-B1DE-4149-A708-6794B3C6054F";
name = "Oct 20, 23 at 16:22";
shapes = (
{
closed = 1;
nodes = (
(265,680,o),
(196,689,o),
(177,692,c),
(179,700,l),
(409,700,l),
(407,691,l),
(395,688,o),
(322,674,o),
(301,644,cs),
(285,620,o),
(241,501,o),
(208,373,cs),
(176,250,o),
(154,119,o),
(148,56,cs),
(144,19,o),
(213,11,o),
(232,8,c),
(230,0,l),
(0,0,l),
(2,9,l),
(14,12,o),
(87,25,o),
(106,56,cs),
(123,84,o),
(171,231,o),
(208,373,cs),
(238,484,o),
(258,590,o),
(262,644,cs)
);
},
{
closed = 1;
nodes = (
(357,590,o),
(377,484,o),
(407,373,cs),
(444,231,o),
(492,84,o),
(509,56,cs),
(528,25,o),
(601,12,o),
(613,9,c),
(615,0,l),
(385,0,l),
(383,8,l),
(402,11,o),
(471,19,o),
(467,56,cs),
(461,119,o),
(439,250,o),
(407,373,cs),
(374,501,o),
(330,620,o),
(314,644,cs),
(293,674,o),
(220,688,o),
(208,691,c),
(206,700,l),
(436,700,l),
(438,692,l),
(419,689,o),
(350,680,o),
(353,644,cs)
);
}
);
width = 595;
},
{
associatedMasterId = m01;
layerId = "78BDAA4E-A39C-40C4-9E78-3B1EBBD8BA28";
name = "Feb 4, 24 at 00:30";
shapes = (
{
closed = 1;
nodes = (
(352,700,l),
(445,373,l),
(482,231,o),
(542,84,o),
(559,56,cs),
(578,25,o),
(652,12,o),
(664,9,c),
(664,0,l),
(434,0,l),
(434,8,l),
(453,11,o),
(521,19,o),
(517,56,cs),
(511,119,o),
(477,250,o),
(445,373,c),
(329,688,l),
(337,688,l),
(228,373,l),
(196,250,o),
(154,119,o),
(148,56,cs),
(144,19,o),
(212,11,o),
(231,8,c),
(231,0,l),
(1,0,l),
(1,9,l),
(13,12,o),
(87,25,o),
(106,56,cs),
(123,84,o),
(191,231,o),
(228,373,c),
(329,700,l)
);
}
);
width = 665;
}
);
metricRight = "=|";
unicode = 65;
},
{
glyphname = B;
lastChange = "2024-02-04 08:18:07 +0000";
layers = (
{
layerId = m01;
shapes = (
{
closed = 1;
nodes = (
(135,373,l),
(123,575,ls),
(116,681,o),
(40,689,o),
(20,692,c),
(20,700,l),
(250,700,l),
(250,691,l),
(239,688,o),
(146,677,o),
(142,575,cs)
);
},
{
closed = 1;
nodes = (
(405,684,o),
(372,692,o),
(325,692,cs),
(269,692,l),
(269,700,l),
(327,700,ls),
(379,700,o),
(412,687,o),
(430,673,c)
);
},
{
closed = 1;
nodes = (
(135,363,l),
(143,125,ls),
(147,19,o),
(235,11,o),
(255,8,c),
(255,0,l),
(25,0,l),
(25,9,l),
(36,12,o),
(114,23,o),
(120,125,cs)
);
},
{
closed = 1;
nodes = (
(472,642,o),
(479,594,o),
(479,552,cs),
(479,510,o),
(460,450,o),
(396,410,c),
(473,443,o),
(525,497,o),
(525,552,cs),
(525,603,o),
(488,647,o),
(433,671,c)
);
},
{
closed = 1;
nodes = (
(500,73,o),
(543,140,o),
(543,210,cs),
(543,291,o),
(503,344,o),
(412,387,c),
(488,342,o),
(507,287,o),
(507,210,cs),
(507,143,o),
(482,76,o),
(429,36,c)
);
},
{
closed = 1;
nodes = (
(394,12,o),
(358,0,o),
(310,0,cs),
(282,0,l),
(282,7,l),
(308,7,ls),
(352,7,o),
(390,16,o),
(425,34,c)
);
}
);
width = 600;
}
);
unicode = 66;
},
{
glyphname = C;
lastChange = "2024-02-04 07:39:12 +0000";
layers = (
{
background = {
shapes = (
{
closed = 1;
nodes = (
(228,-15,o),
(66,157,o),
(66,370,cs),
(66,596,o),
(225,714,o),
(354,714,cs),
(432,715,o),
(521,685,o),
(562,644,cs),
(598,607,o),
(601,542,o),
(601,460,c),
(608,460,l),
(608,663,l),
(533,683,o),
(439,700,o),
(383,700,cs),
(177,700,o),
(10,571,o),
(10,351,cs),
(10,131,o),
(180,4,o),
(408,4,cs),
(518,4,o),
(592,40,o),
(601,48,c),
(654,224,l),
(647,226,l),
(625,170,o),
(608,113,o),
(576,78,cs),
(533,30,o),
(463,-16,o),
(408,-15,cs)
);
}
);
};
layerId = m01;
shapes = (
{
closed = 1;
nodes = (
(224,-12,o),
(23,140,o),
(16,352,c),
(16,13,o),
(345,-69,o),
(490,10,c)
);
},
{
closed = 1;
nodes = (
(560,20,o),
(594,41,o),
(600,46,c),
(653,222,l),
(646,224,l),
(596,97,o),
(572,52,o),
(496,12,c)
);
},
{
closed = 1;
nodes = (
(22,529,o),
(102,644,o),
(235,682,cs),
(305,702,o),
(404,708,o),
(490,687,c),
(444,707,o),
(394,714,o),
(343,714,cs),
(169,714,o),
(16,596,o),
(16,371,c)
);
},
{
closed = 1;
nodes = (
(608,460,l),
(608,663,l),
(575,672,o),
(538,680,o),
(499,684,c),
(577,651,o),
(601,618,o),
(601,460,c)
);
}
);
width = 654;
},
{
associatedMasterId = m01;
layerId = "5B3588F2-2AAD-4EEE-9C55-F4113AE4F83A";
name = "Oct 6, 23 at 21:03";
shapes = (
{
closed = 1;
nodes = (
(189,-8,o),
(10,126,o),
(10,358,cs),
(10,590,o),
(186,726,o),
(433,726,c),
(492,726,o),
(591,708,o),
(670,687,c),
(670,502,l),
(652,502,l),
(648,561,o),
(606,620,o),
(585,637,cs),
(564,654,o),
(515,700,o),
(410,699,cs),
(280,698,o),
(140,604,o),
(130,378,cs),
(120,152,o),
(313,26,o),
(449,24,cs),
(507,23,o),
(555,50,o),
(591,89,cs),
(623,124,o),
(646,167,o),
(659,197,cs),
(672,227,l),
(689,224,l),
(682,162,o),
(643,46,o),
(633,38,cs),
(624,30,o),
(545,-8,o),
(430,-8,cs)
);
}
);
width = 699;
},
{
associatedMasterId = m01;
layerId = "194B2423-19FC-4910-A9A0-913F56B43106";
name = "Oct 6, 23 at 21:06";
shapes = (
{
closed = 1;
nodes = (
(186,726,o),
(10,590,o),
(10,358,cs),
(10,126,o),
(189,-8,o),
(430,-8,cs),
(545,-8,o),
(624,30,o),
(633,38,cs),
(643,46,o),
(682,162,o),
(689,224,c),
(681,227,l),
(628,82,o),
(543,-1,o),
(449,0,cs),
(287,2,o),
(69,137,o),
(69,378,cs),
(69,616,o),
(254,715,o),
(390,716,cs),
(472,717,o),
(549,710,o),
(592,667,cs),
(630,628,o),
(633,559,o),
(633,473,c),
(640,473,l),
(640,687,l),
(561,708,o),
(462,726,o),
(403,726,cs)
);
}
);
width = 699;
},
{
associatedMasterId = m01;
layerId = "171DFCFA-FAEA-40D7-946E-81937E587A7B";
name = "Feb 4, 24 at 02:05";
shapes = (
{
closed = 1;
nodes = (
(228,-15,o),
(66,157,o),
(66,370,cs),
(66,596,o),
(225,714,o),
(354,714,cs),
(432,715,o),
(521,685,o),
(562,644,cs),
(598,607,o),
(601,542,o),
(601,460,c),
(608,460,l),
(608,663,l),
(533,683,o),
(439,700,o),
(383,700,cs),
(177,700,o),
(10,571,o),
(10,351,cs),
(10,131,o),
(180,4,o),
(408,4,cs),
(518,4,o),
(592,40,o),
(601,48,c),
(654,224,l),
(647,226,l),
(625,170,o),
(608,113,o),
(576,78,cs),
(533,30,o),
(463,-16,o),
(408,-15,cs)
);
}
);
width = 654;
}
);
unicode = 67;
},
{
glyphname = D;
lastChange = "2023-10-23 16:50:12 +0000";
layers = (
{
layerId = m01;
shapes = (
{
ref = I;
},
{
closed = 1;
nodes = (
(255,700,l),
(356,700,ls),
(571,700,o),
(645,539,o),
(645,355,cs),
(645,165,o),
(547,0,o),
(351,0,cs),
(255,0,l),
(255,5,l),
(373,12,ls),
(548,22,o),
(701,164,o),
(701,355,cs),
(701,547,o),
(550,691,o),
(343,692,cs),
(255,693,l)
);
}
);
width = 716;
}
);
metricRight = O;
unicode = 68;
},
{
glyphname = E;
lastChange = "2024-02-04 07:00:10 +0000";
layers = (
{
layerId = m01;
shapes = (
{
closed = 1;
nodes = (
(28,0,l),
(28,9,l),
(39,12,o),
(130,35,o),
(134,179,cs),
(140,407,l),
(148,178,ls),
(154,26,o),
(267,0,o),
(278,0,c)
);
},
{
closed = 1;
nodes = (
(276,400,ls),
(325,396,o),
(358,388,o),
(362,342,cs),
(366,299,l),
(372,299,l),
(368,477,l),
(357,477,l),
(348,416,l),
(151,409,l)
);
},
{
closed = 1;
nodes = (
(20,700,l),
(20,691,l),
(59,685,o),
(84,669,o),
(102,640,cs),
(128,596,o),
(135,522,o),
(140,414,c),
(159,668,l),
(240,688,l)
);
},
{
closed = 1;
nodes = (
(313,3,o),
(357,26,o),
(389,50,cs),
(427,78,o),
(464,167,o),
(473,185,c),
(480,182,l),
(421,0,l),
(279,0,l)
);
},
{
closed = 1;
nodes = (
(286,687,o),
(345,683,o),
(379,656,cs),
(404,636,o),
(427,604,o),
(446,551,c),
(452,552,l),
(418,730,l),
(407,730,l),
(407,699,l),
(243,688,l)
);
}
);
width = 500;
}
);
metricRight = "=|";
unicode = 69;
},
{
glyphname = F;
lastChange = "2024-02-04 08:15:55 +0000";
layers = (
{
background = {
shapes = (
{
closed = 1;
nodes = (
(240,688,l),
(316,677,ls),
(382,668,o),
(407,657,o),
(426,605,cs),
(446,551,l),
(452,552,l),
(418,730,l),
(407,730,l),
(407,691,l),
(416,700,l),
(240,688,l),
(20,700,l),
(20,692,l),
(40,689,o),
(111,681,o),
(118,644,cs),
(134,557,o),
(133,498,o),
(140,411,c),
(124,82,ls),
(121,17,o),
(39,10,o),
(28,7,c),
(28,0,l),
(282,0,l),
(282,8,l),
(262,11,o),
(171,19,o),
(164,67,cs),
(155,130,o),
(140,278,o),
(140,411,c),
(146,502,o),
(150,562,o),
(156,644,cs),
(159,683,l),
(153,677,l)
);
},
{
closed = 1;
nodes = (
(295,399,ls),
(341,396,o),
(353,383,o),
(358,351,cs),
(366,299,l),
(372,300,l),
(368,478,l),
(357,478,l),
(348,417,l),
(151,410,l)
);
}
);
};
layerId = m01;
shapes = (
{
closed = 1;
nodes = (
(28,0,l),
(28,9,l),
(39,12,o),
(130,35,o),
(134,179,cs),
(140,407,l),
(148,178,ls),
(153,45,o),
(249,14,o),
(282,9,c),
(282,0,l)
);
},
{
closed = 1;
nodes = (
(276,400,ls),
(325,396,o),
(358,388,o),
(362,342,cs),
(366,299,l),
(372,299,l),
(368,477,l),
(357,477,l),
(348,416,l),
(151,409,l)
);
},
{
closed = 1;
nodes = (
(20,700,l),
(20,691,l),
(59,685,o),
(84,669,o),
(102,640,cs),
(128,596,o),
(135,522,o),
(140,414,c),
(159,668,l),
(240,688,l)
);
},
{
closed = 1;
nodes = (
(286,687,o),
(345,683,o),
(379,656,cs),
(404,636,o),
(427,604,o),
(446,551,c),
(452,552,l),
(418,730,l),
(407,730,l),
(407,699,l),
(243,688,l)
);
}
);
width = 472;
}
);
unicode = 70;
},
{
glyphname = G;
lastChange = "2023-10-23 16:50:12 +0000";
layers = (
{
layerId = m01;
shapes = (
{
closed = 1;
nodes = (
(184,702,o),
(15,571,o),
(15,349,cs),
(15,126,o),
(187,0,o),
(418,0,cs),
(531,0,o),
(642,53,o),
(710,109,c),
(708,112,l),
(699,106,o),
(668,86,o),
(652,79,c),
(633,253,l),
(661,370,o),
(661,417,o),
(698,429,cs),
(718,436,l),
(718,442,l),
(538,435,l),
(315,428,l),
(62,442,l),
(62,425,l),
(296,442,l),
(529,421,ls),
(589,416,o),
(614,401,o),
(625,319,cs),
(633,253,l),
(620,125,ls),
(614,60,o),
(512,-15,o),
(428,-15,cs),
(245,-15,o),
(73,152,o),
(73,368,cs),
(73,584,o),
(266,715,o),
(409,716,cs),
(487,717,o),
(560,686,o),
(602,646,cs),
(639,608,o),
(642,541,o),
(642,459,c),
(649,459,l),
(649,664,l),
(572,684,o),
(477,702,o),
(421,702,cs)
);
}
);
width = 738;
},
{
associatedMasterId = m01;
guides = (
{
pos = (423,726);
},
{
angle = 90;
pos = (-2,356);
},
{
pos = (423,-11);
},
{
pos = (405,700);
},
{
pos = (473,34);
}
);
layerId = "25F7E0BD-5485-48CF-AE27-87546848EF6E";
name = "Oct 4, 23 at 21:39";
shapes = (
{
closed = 1;
nodes = (
(176,726,o),
(0,590,o),
(0,358,cs),
(0,126,o),
(179,-2,o),
(420,-8,cs),
(538,-11,o),
(653,59,o),
(708,74,c),
(707,89,l),
(664,90,l),
(664,144,o),
(663,230,o),
(663,251,cs),
(663,272,o),
(674,302,o),
(689,313,c),
(733,328,l),
(733,344,l),
(428,345,l),
(428,327,l),
(443,325,o),
(455,322,o),
(474,320,cs),
(493,318,o),
(558,298,o),
(561,246,cs),
(564,194,o),
(563,107,o),
(563,92,cs),
(563,77,o),
(564,46,o),
(527,40,cs),
(490,34,o),
(489,36,o),
(470,35,cs),
(334,31,o),
(110,152,o),
(120,378,cs),
(130,604,o),
(270,698,o),
(400,699,cs),
(505,700,o),
(554,654,o),
(575,637,cs),
(596,620,o),
(638,561,o),
(642,502,c),
(660,502,l),
(660,687,l),
(581,708,o),
(482,726,o),
(423,726,c)
);
}
);
width = 743;
},
{
associatedMasterId = m01;
layerId = "B60E8C87-7BFE-4E72-B0FE-10EC576C5A2C";
name = "Oct 18, 23 at 20:34";
shapes = (
{
closed = 1;
nodes = (
(201,726,o),
(25,590,o),
(25,358,cs),
(25,126,o),
(204,-5,o),
(445,-6,cs),
(563,-6,o),
(678,49,o),
(750,108,c),
(748,111,l),
(738,105,o),
(706,84,o),
(689,77,c),
(688,338,ls),
(688,383,o),
(696,428,o),
(737,442,cs),
(758,449,l),
(758,456,l),
(74,456,l),
(74,445,l),
(560,441,ls),
(623,441,o),
(649,417,o),
(649,326,cs),
(649,125,ls),
(649,57,o),
(543,-21,o),
(455,-21,cs),
(265,-21,o),
(85,153,o),
(85,378,cs),
(85,603,o),
(287,740,o),
(435,741,cs),
(517,742,o),
(594,710,o),
(637,667,cs),
(675,628,o),
(678,559,o),
(678,473,c),
(685,473,l),
(685,687,l),
(606,708,o),
(507,726,o),
(448,726,cs)
);
}
);
width = 758;
}
);
metricLeft = O;
metricRight = H;
unicode = 71;
},
{
glyphname = H;
lastChange = "2023-10-20 20:47:08 +0000";
layers = (
{
layerId = m01;
shapes = (
{
closed = 1;
nodes = (
(309,411,l),
(493,422,l),
(493,421,l),
(310,426,l),
(135,422,l),
(135,424,l)
);
},
{
pos = (20,0);
ref = I;
},
{
pos = (378,0);
ref = I;
}
);
width = 633;
},
{
associatedMasterId = m01;
layerId = "51FB71CB-77AE-466F-95C1-40366A948791";
name = "Oct 12, 23 at 17:53";
shapes = (
{
closed = 1;
nodes = (
(462,447,l),
(462,416,l),
(101,416,l),
(101,447,l)
);
},
{
pos = (-15,0);
ref = I;
},
{
pos = (343,0);
ref = I;
}
);
width = 578;
},
{
associatedMasterId = m01;
layerId = "915B89C5-BE5F-48D7-B517-24DE462C960E";
name = "Oct 13, 23 at 14:43";
shapes = (
{
closed = 1;
nodes = (
(276,417,l),
(458,447,l),
(458,416,l),
(277,434,l),
(100,416,l),
(100,447,l)
);
},
{
pos = (-15,0);
ref = I;
},
{
pos = (343,0);
ref = I;
}
);
width = 578;
}
);
unicode = 72;
},
{
glyphname = I;
lastChange = "2024-02-04 08:19:08 +0000";
layers = (
{
guides = (
{
angle = 180;
pos = (233,575);
},
{
angle = 180;
pos = (233,700);
}
);
layerId = m01;
shapes = (
{
closed = 1;
nodes = (
(108,575,ls),
(103,677,o),
(20,689,o),
(0,692,c),
(0,700,l),
(230,700,l),
(230,691,l),
(219,688,o),
(134,677,o),
(127,575,cs),
(115,413,l)
);
},
{
closed = 1;
nodes = (
(128,125,ls),
(133,21,o),
(215,11,o),
(235,8,c),
(235,0,l),
(5,0,l),
(5,9,l),
(16,12,o),
(101,21,o),
(105,125,cs),
(115,403,l)
);
}
);
width = 235;
},
{
associatedMasterId = m01;
backgroundImage = {
imagePath = "/Users/jaamalbenjamin/Library/Mobile Documents/com~apple~CloudDocs/Yale/__Yale SoA/Yale SoA - Projects/Night School/Night School Letters-Galliard sketch.png";
locked = 1;
pos = (-1100,-1054);
scale = (14.0741,14.0741);
};
layerId = "9CC2C933-402D-4A1B-9852-7315D78605FC";
name = "Oct 4, 23 at 21:36";
shapes = (
{
closed = 1;
nodes = (
(50,707,l),
(50,689,l),
(86,687,ls),
(108,685,o),
(179,669,o),
(179,576,cs),
(179,483,o),
(181,136,o),
(181,125,cs),
(181,114,o),
(176,55,o),
(136,41,cs),
(96,27,o),
(66,17,o),
(56,17,c),
(56,0,l),
(404,0,l),
(404,19,l),
(389,21,o),
(368,22,o),
(359,24,cs),
(350,26,o),
(276,34,o),
(276,124,cs),
(276,214,o),
(275,580,o),
(275,596,cs),
(275,612,o),
(280,643,o),
(304,657,cs),
(328,671,o),
(358,683,o),
(371,685,cs),
(400,689,l),
(400,707,l)
);
}
);
width = 454;
},
{
associatedMasterId = m01;
layerId = "EB792AB0-DCCE-4B3C-B6D9-061BCC1FE4CB";
name = "Oct 4, 23 at 23:02";
shapes = (
{
closed = 1;
nodes = (
(20,707,l),
(20,689,l),
(56,687,ls),
(78,685,o),
(149,669,o),
(149,576,cs),
(149,483,o),
(151,136,o),
(151,125,cs),
(151,114,o),
(146,55,o),
(106,41,cs),
(66,27,o),
(36,17,o),
(26,17,c),
(26,0,l),
(374,0,l),
(374,19,l),
(359,21,o),
(338,22,o),
(329,24,cs),
(320,26,o),
(246,34,o),
(246,124,cs),
(246,214,o),
(245,580,o),
(245,596,cs),
(245,612,o),
(250,643,o),
(274,657,cs),
(298,671,o),
(328,683,o),
(341,685,cs),
(370,689,l),
(370,707,l)
);
}
);
width = 394;
},
{
associatedMasterId = m01;
layerId = "FF5C9553-F387-4B21-8D8A-DE499170CCC4";
name = "Oct 6, 23 at 18:02";
shapes = (
{
closed = 1;
nodes = (
(20,707,l),
(20,689,l),
(56,687,ls),
(78,685,o),
(149,669,o),
(149,576,cs),
(149,483,o),
(151,136,o),
(151,125,cs),
(151,114,o),
(146,55,o),
(106,41,cs),
(66,27,o),
(36,17,o),
(26,17,c),
(26,0,l),
(364,0,l),
(364,19,l),
(349,21,o),
(328,22,o),
(319,24,cs),
(310,26,o),
(236,34,o),
(236,124,cs),
(236,214,o),
(235,580,o),
(235,596,cs),
(235,612,o),
(240,643,o),
(264,657,cs),
(288,671,o),
(318,683,o),
(331,685,cs),
(360,689,l),
(360,707,l)
);
}
);
width = 394;
},
{
associatedMasterId = m01;
layerId = "AE1793E5-18B0-4223-BD74-865AD819470A";
name = "Oct 6, 23 at 19:47";
shapes = (
{
closed = 1;
nodes = (
(191,214,o),
(191,580,o),
(191,596,cs),
(191,612,o),
(196,643,o),
(220,657,cs),
(244,671,o),
(274,683,o),
(287,685,cs),
(316,689,l),
(316,707,l),
(10,707,l),
(10,689,l),
(46,687,ls),
(68,685,o),
(139,669,o),
(139,576,cs),
(139,483,o),
(142,136,o),
(142,86,cs),
(142,33,o),
(101,25,o),
(49,9,c),
(49,0,l),
(289,0,l),
(289,8,l),
(269,11,o),
(191,29,o),
(191,86,cs)
);
}
);
width = 394;
},
{
associatedMasterId = m01;
layerId = "EF0C507F-7D1C-45CA-B637-F64B8628A97A";
name = "Oct 6, 23 at 20:28";
shapes = (
{
closed = 1;
nodes = (
(142,521,o),
(142,136,o),
(142,86,cs),
(142,33,o),
(101,25,o),
(49,9,c),
(49,0,l),
(289,0,l),
(289,8,l),
(269,11,o),
(191,29,o),
(191,86,cs),
(191,214,o),
(191,598,o),
(191,614,cs),
(191,667,o),
(232,675,o),
(284,691,c),
(284,700,l),
(40,700,l),
(40,692,l),
(60,689,o),
(142,671,o),
(142,614,cs)
);
}
);
width = 394;
},
{
associatedMasterId = m01;
layerId = "B96163D0-40B0-456B-A164-C37424FEC85A";
name = "Oct 6, 23 at 21:46";
shapes = (
{
closed = 1;
nodes = (
(108,681,o),
(30,689,o),
(10,692,c),
(10,700,l),
(250,700,l),
(250,691,l),
(198,675,o),
(157,677,o),
(157,644,cs),
(157,598,o),
(158,184,o),
(158,56,cs),
(158,19,o),
(235,11,o),
(255,8,c),
(255,0,l),
(15,0,l),
(15,9,l),
(67,25,o),
(106,23,o),
(106,56,cs),
(106,106,o),
(108,521,o),
(108,644,cs)
);
}
);
width = 265;
},
{
associatedMasterId = m01;
layerId = "817E31B2-0201-41BE-903A-13D38D605D68";
name = "Oct 12, 23 at 17:55";
shapes = (
{
closed = 1;
nodes = (
(98,681,o),
(20,689,o),
(0,692,c),
(0,700,l),
(230,700,l),
(230,691,l),
(178,675,o),
(137,677,o),
(137,644,cs),
(137,598,o),
(138,184,o),
(138,56,cs),
(138,19,o),
(215,11,o),
(235,8,c),
(235,0,l),
(5,0,l),
(5,9,l),
(57,25,o),
(96,23,o),
(96,56,cs),
(96,106,o),
(98,521,o),
(98,644,cs)
);
}
);
width = 235;
}
);
unicode = 73;
},
{
glyphname = J;
lastChange = "2023-10-20 21:04:08 +0000";
layers = (
{
layerId = m01;
shapes = (
{
closed = 1;
nodes = (
(168,-4,o),
(207,65,o),
(227,156,cs),
(246,238,o),
(260,338,o),
(260,437,cs),
(260,544,o),
(252,592,o),
(242,644,cs),
(235,680,o),
(184,689,o),
(154,692,c),
(154,700,l),
(354,700,l),
(354,691,l),
(343,688,o),
(294,673,o),
(281,644,cs),
(271,621,o),
(260,567,o),
(260,457,cs),
(260,352,o),
(268,275,o),
(268,231,cs),
(268,91,o),
(234,31,o),
(20,-44,c),
(20,-45,l),
(85,-27,ls)
);
}
);
width = 401;
}
);
unicode = 74;
},
{
glyphname = K;
lastChange = "2023-10-20 21:17:57 +0000";
layers = (
{
layerId = m01;
shapes = (
{
closed = 1;
nodes = (
(91,680,o),
(20,689,o),
(0,692,c),
(0,700,l),
(230,700,l),
(230,691,l),
(219,688,o),
(150,674,o),
(137,644,cs),
(127,620,o),
(114,501,o),
(115,373,cs),
(115,250,o),
(128,119,o),
(138,56,cs),
(144,19,o),
(215,11,o),
(235,8,c),
(235,0,l),
(5,0,l),
(5,9,l),
(16,12,o),
(85,25,o),
(96,56,cs),
(106,84,o),
(115,231,o),
(115,373,cs),
(116,484,o),
(108,590,o),
(98,644,cs)
);
},
{
closed = 1;
nodes = (
(258,478,o),
(398,589,o),
(398,644,cs),
(398,674,o),
(340,689,o),
(320,692,c),
(320,700,l),
(530,700,l),
(530,691,l),
(519,688,o),
(468,665,o),
(437,644,cs),
(421,633,o),
(235,485,o),
(137,390,c)
);
},
{
closed = 1;
nodes = (
(353,345,o),
(428,119,o),
(455,76,cs),
(488,24,o),
(545,11,o),
(565,8,c),
(565,0,l),
(335,0,l),
(335,9,l),
(346,12,o),
(426,23,o),
(426,56,cs),
(426,91,o),
(353,326,o),
(303,468,c)
);
}
);
width = 565;
}
);
unicode = 75;
},
{
glyphname = L;
lastChange = "2023-10-18 21:52:57 +0000";
layers = (
{
layerId = m01;
shapes = (
{
closed = 1;
nodes = (
(100,382,l),
(93,469,o),
(94,557,o),
(78,644,cs),
(71,681,o),
(0,689,o),
(-20,692,c),
(-20,700,l),
(210,700,l),
(210,691,l),
(199,688,o),
(120,680,o),
(116,644,cs),
(107,562,o),
(106,472,o),
(100,381,c),
(107,292,o),
(109,202,o),
(121,114,cs),
(131,42,o),
(142,21,o),
(200,19,cs),
(256,17,o),
(331,15,o),
(379,50,cs),
(417,78,o),
(454,167,o),
(463,185,c),
(470,182,l),
(411,0,l),
(-12,0,l),
(-12,7,l),
(-1,10,o),
(80,17,o),
(84,82,cs)
);
}
);
width = 470;
},
{
associatedMasterId = m01;
backgroundImage = {
imagePath = "/Users/jaamalbenjamin/Library/Mobile Documents/com~apple~CloudDocs/Yale/__Yale SoA/Yale SoA - Projects/Night School/Night School Letters-Galliard sketch.png";
pos = (-3618,-258);
scale = (14.0741,14.0741);
};
layerId = "EC15E85D-A17D-40DC-B98B-FB9351BB3A6E";
name = "Oct 4, 23 at 22:13";
shapes = (
{
closed = 1;
nodes = (
(218,214,o),
(218,580,o),
(218,596,cs),
(218,612,o),
(228,642,o),
(252,660,cs),
(276,678,o),
(308,683,o),
(321,685,cs),
(350,689,l),
(350,707,l),
(0,707,l),
(0,689,l),
(36,687,ls),
(58,685,o),
(129,669,o),
(129,576,cs),
(129,483,o),
(131,136,o),
(131,125,cs),
(131,114,o),
(126,55,o),
(86,41,cs),
(46,27,o),
(16,17,o),
(6,17,c),
(6,0,l),
(548,0,l),
(607,192,l),
(603,193,o),
(597,195,o),
(594,196,c),
(588,184,o),
(550,126,o),
(545,119,cs),
(540,112,o),
(518,81,o),
(503,70,cs),
(488,59,o),
(461,39,o),
(427,36,cs),
(393,33,o),
(387,31,o),
(364,30,cs),
(341,29,o),
(312,29,o),
(297,29,cs),
(231,31,o),
(218,58,o),
(218,124,cs)
);
}
);
width = 394;
},
{
associatedMasterId = m01;
layerId = "E36CCF95-3121-4A77-B3DB-ED72C649F680";
name = "Oct 6, 23 at 21:08";
shapes = (
{
closed = 1;
nodes = (
(218,214,o),
(218,580,o),
(218,596,cs),
(218,612,o),
(228,642,o),
(252,660,cs),
(276,678,o),
(308,683,o),
(321,685,cs),
(350,689,l),
(350,707,l),
(36,707,l),
(36,689,l),
(72,687,ls),
(94,685,o),
(165,669,o),
(165,576,cs),
(167,125,ls),
(167,92,o),
(162,55,o),
(122,41,cs),
(82,27,o),
(52,17,o),
(42,17,c),
(42,0,l),
(548,0,l),
(607,192,l),
(594,196,l),
(585,178,o),
(529,89,o),
(503,70,cs),
(443,26,o),
(393,29,o),
(297,29,cs),
(231,31,o),
(218,58,o),
(218,124,cs)
);
},
{
closed = 1;
nodes = (
(390,605,o),
(312,613,o),
(292,616,c),
(292,624,l),
(532,624,l),
(532,615,l),
(480,599,o),
(439,601,o),
(439,568,cs),
(439,522,o),
(440,108,o),
(440,-20,cs),
(440,-57,o),
(517,-65,o),
(537,-68,c),
(537,-76,l),
(297,-76,l),
(297,-67,l),
(349,-51,o),
(388,-53,o),
(388,-20,cs),
(388,30,o),
(390,445,o),
(390,568,cs)
);
}
);
width = 617;
},
{
associatedMasterId = m01;
layerId = "4F2BB6CB-CD03-4157-A650-26F3920FDF1B";
name = "Oct 13, 23 at 14:55";
shapes = (
{
closed = 1;
nodes = (
(98,644,ls),
(98,681,o),
(20,689,o),
(0,692,c),
(0,700,l),
(230,700,l),
(230,691,l),
(178,675,o),
(137,677,o),
(137,644,cs),
(141,114,ls),
(141,42,o),
(152,21,o),
(220,19,cs),
(276,19,o),
(351,15,o),
(399,50,cs),
(437,78,o),
(474,167,o),
(483,185,c),
(490,182,l),
(431,0,l),
(8,0,l),
(8,7,l),
(61,23,o),
(100,21,o),
(100,54,cs)
);
}
);
width = 490;
}
);
unicode = 76;
},
{
glyphname = M;
lastChange = "2023-10-20 19:10:18 +0000";
layers = (
{
layerId = m01;
shapes = (
{
closed = 1;
nodes = (
(582,423,o),
(579,492,o),
(572,580,cs),
(565,670,l),
(609,692,l),
(447,479,l),
(358,365,l),
(269,479,l),
(107,692,l),
(151,670,l),
(144,580,ls),
(137,492,o),
(134,423,o),
(133,354,cs),
(132,240,o),
(138,122,o),
(152,56,cs),
(160,20,o),
(229,11,o),
(249,8,c),
(249,0,l),
(19,0,l),
(19,9,l),
(30,12,o),
(101,24,o),
(110,56,cs),
(125,107,o),
(133,236,o),
(133,354,cs),
(134,459,o),
(122,556,o),
(117,585,cs),
(107,639,o),
(94,674,o),
(0,692,c),
(0,700,l),
(143,700,l),
(269,479,l),
(358,330,l),
(447,479,l),
(573,700,l),
(716,700,l),
(716,692,l),
(622,674,o),
(609,639,o),
(599,585,cs),
(594,556,o),
(582,459,o),
(583,354,c)
);
},
{
closed = 1;
nodes = (
(583,233,o),
(589,103,o),
(604,56,cs),
(614,24,o),
(684,12,o),
(695,9,c),
(695,0,l),
(465,0,l),
(465,8,l),
(485,11,o),
(553,20,o),
(562,56,cs),
(576,114,o),
(584,235,o),
(583,355,c)
);
}
);
width = 716;
}
);
unicode = 77;
},
{
glyphname = N;
lastChange = "2023-10-13 18:54:20 +0000";
layers = (
{
layerId = m01;
shapes = (
{
closed = 1;
nodes = (
(466,330,l),
(294,529,l),
(107,692,l),
(151,670,l),
(144,580,ls),
(137,492,o),
(134,423,o),
(133,354,cs),
(132,240,o),
(138,122,o),
(152,56,cs),
(160,20,o),
(229,11,o),
(249,8,c),
(249,0,l),
(19,0,l),
(19,9,l),
(30,12,o),
(101,24,o),
(110,56,cs),
(125,107,o),
(133,236,o),
(133,354,cs),
(134,459,o),
(122,556,o),
(117,585,cs),
(107,639,o),
(94,674,o),
(0,692,c),
(0,700,l),
(143,700,l),
(294,529,l),
(464,379,l)
);
},
{
closed = 1;
nodes = (
(436,666,o),
(399,675,o),
(347,691,c),
(347,700,l),
(567,700,l),
(567,692,l),
(547,689,o),
(489,671,o),
(479,614,cs),
(476,598,o),
(464,480,o),
(465,355,cs),
(465,233,o),
(471,103,o),
(486,56,cs),
(496,24,o),
(566,12,o),
(577,9,c),
(577,0,l),
(347,0,l),
(347,8,l),
(367,11,o),
(435,20,o),
(444,56,cs),
(458,114,o),
(466,235,o),
(465,355,cs),
(464,454,o),
(455,553,o),
(445,614,cs)
);
}
);
width = 587;
},
{
associatedMasterId = m01;
backgroundImage = {
imagePath = "/Users/jaamalbenjamin/Library/Mobile Documents/com~apple~CloudDocs/Yale/__Yale SoA/Yale SoA - Projects/Night School/Night School Letters-Galliard sketch.png";
pos = (-279,-1054);
scale = (14.0741,14.0741);
};
layerId = "F29780E0-239E-4D57-832D-9F72F6BA0A91";
name = "Oct 4, 23 at 21:38";
shapes = (
{
closed = 1;
nodes = (
(369,1,l),
(59,1,l),
(59,15,l),
(78,21,o),
(108,30,o),
(115,32,cs),
(172,48,o),
(176,92,o),
(183,142,cs),
(187,184,o),
(192,233,o),
(191,257,cs),
(190,289,o),
(195,527,o),
(195,551,cs),
(195,575,o),
(191,596,o),
(177,615,cs),
(163,634,o),
(128,669,o),
(93,676,cs),
(51,685,l),
(50,704,l),
(223,706,l),
(737,157,l),
(722,157,l),
(723,265,o),
(726,449,o),
(726,482,cs),
(726,525,o),
(738,643,o),
(633,671,cs),
(581,685,l),
(581,704,l),
(861,704,l),
(861,685,l),
(835,678,ls),
(785,664,o),
(775,627,o),
(773,564,cs),
(764,314,l),
(763,306,o),
(762,-18,o),
(762,-23,cs),
(762,-28,o),
(758,-29,o),
(753,-22,c),
(222,549,l),
(231,549,l),
(231,453,o),
(231,290,o),
(231,261,cs),
(231,232,o),
(228,184,o),
(231,143,cs),
(232,127,o),
(244,62,o),
(283,46,cs),
(312,35,o),
(341,25,o),
(370,14,c)
);
}
);
width = 911;
},
{
associatedMasterId = m01;
layerId = "3C5FFDF3-43EF-49C8-BE44-C1554490054C";
name = "Oct 4, 23 at 22:24";
shapes = (
{
closed = 1;
nodes = (
(339,1,l),
(29,1,l),
(29,15,l),
(48,21,o),
(78,30,o),
(85,32,cs),
(142,48,o),
(146,92,o),
(153,142,cs),
(157,184,o),
(162,233,o),
(161,257,cs),
(160,289,o),
(165,527,o),
(165,551,cs),
(165,575,o),
(161,596,o),
(147,615,cs),
(133,634,o),
(98,669,o),
(63,676,cs),
(21,685,l),
(20,704,l),
(193,706,l),
(707,157,l),
(692,157,l),
(693,265,o),
(696,449,o),
(696,482,cs),
(696,525,o),
(708,643,o),
(603,671,cs),
(551,685,l),
(551,704,l),
(831,704,l),
(831,685,l),
(805,678,ls),
(755,664,o),
(745,627,o),
(743,564,cs),
(734,314,l),
(733,306,o),
(732,-18,o),
(732,-23,cs),
(732,-28,o),
(728,-29,o),
(723,-22,c),
(192,549,l),
(201,549,l),
(201,453,o),
(201,290,o),
(201,261,cs),
(201,232,o),
(198,184,o),
(201,143,cs),
(202,127,o),
(214,62,o),
(253,46,cs),
(282,35,o),
(311,25,o),
(340,14,c)
);
}
);
width = 851;
},
{
associatedMasterId = m01;
layerId = "0DA27436-8B63-421A-899B-F4F8B739F483";
name = "Oct 4, 23 at 23:01";
shapes = (
{
closed = 1;
nodes = (
(591,250,l),
(182,549,l),
(191,549,l),
(191,453,o),
(191,290,o),
(191,261,cs),
(191,232,o),
(188,184,o),
(191,143,cs),
(192,127,o),
(204,62,o),
(243,46,cs),
(272,35,o),
(301,25,o),
(330,14,c),
(329,1,l),
(19,1,l),
(19,15,l),
(38,21,o),
(68,30,o),
(75,32,cs),
(132,48,o),
(136,92,o),
(143,142,cs),
(147,184,o),
(152,233,o),
(151,257,cs),
(150,289,o),
(155,527,o),
(155,551,cs),
(155,575,o),
(151,596,o),
(137,615,cs),
(123,634,o),
(88,669,o),
(53,676,cs),
(11,685,l),
(10,704,l),
(183,706,l),
(595,384,l)
);
},
{
closed = 1;
nodes = (
(623,127,o),
(637,64,o),
(680,46,cs),
(709,35,o),
(738,25,o),
(767,14,c),
(766,1,l),
(456,1,l),
(456,15,l),
(475,21,o),
(505,30,o),
(512,32,cs),
(569,48,o),
(573,92,o),
(580,142,c),
(581,250,o),
(583,449,o),
(583,482,cs),
(583,525,o),
(595,643,o),
(490,671,cs),
(438,685,l),
(438,704,l),
(718,704,l),
(718,685,l),
(692,678,ls),
(642,664,o),
(632,627,o),
(630,564,cs),
(621,314,l),
(621,310,o),
(622,217,o),
(622,143,c)
);
}
);
width = 777;
},
{
associatedMasterId = m01;
layerId = "021FDDF1-50D6-42F6-A596-C39B28465C9B";
name = "Oct 4, 23 at 23:03";
shapes = (
{
closed = 1;
nodes = (
(591,310,l),
(182,609,l),
(191,549,l),
(191,453,o),
(191,290,o),
(191,261,cs),
(191,232,o),
(188,184,o),
(191,143,cs),
(192,127,o),
(204,62,o),
(243,46,cs),
(272,35,o),
(301,25,o),
(330,14,c),
(329,1,l),
(19,1,l),
(19,15,l),
(38,21,o),
(68,30,o),
(75,32,cs),
(132,48,o),
(136,92,o),
(143,142,cs),
(147,184,o),
(152,233,o),
(151,257,cs),
(150,289,o),
(155,527,o),
(155,551,cs),
(155,575,o),
(151,596,o),
(137,615,cs),
(123,634,o),
(88,669,o),
(53,676,cs),
(11,685,l),
(10,704,l),
(183,706,l),
(595,394,l)
);
},
{
closed = 1;
nodes = (
(623,127,o),
(637,64,o),
(680,46,cs),
(709,35,o),
(738,25,o),
(767,14,c),
(766,1,l),
(456,1,l),
(456,15,l),
(475,21,o),
(505,30,o),
(512,32,cs),
(569,48,o),
(573,92,o),
(580,142,c),
(581,250,o),
(583,449,o),
(583,482,cs),
(583,525,o),
(595,643,o),
(490,671,cs),
(438,685,l),
(438,704,l),
(718,704,l),
(718,685,l),
(692,678,ls),
(642,664,o),
(632,627,o),
(630,564,cs),
(621,314,l),
(621,310,o),
(622,217,o),
(622,143,c)
);
}
);
width = 777;
},
{
associatedMasterId = m01;
layerId = "DDB92CF7-A3F9-4957-8C51-F08EB5DA2C9F";
name = "Oct 6, 23 at 14:41";
shapes = (
{
closed = 1;
nodes = (
(551,326,l),
(147,662,l),
(191,647,l),
(191,543,l),
(191,407,o),
(185,172,o),
(191,86,cs),
(195,29,o),
(269,11,o),
(289,8,c),
(289,0,l),
(39,0,l),
(39,9,l),
(75,20,ls),
(133,38,o),
(137,42,o),
(142,86,cs),
(150,162,o),
(155,514,o),
(155,545,cs),
(155,569,o),
(151,590,o),
(137,609,cs),
(123,628,o),
(88,662,o),
(53,669,cs),
(11,678,l),
(10,699,l),
(183,699,l),
(555,390,l)
);
},
{
closed = 1;
nodes = (
(583,126,o),
(597,63,o),
(640,46,cs),
(669,35,o),
(698,25,o),
(727,14,c),
(726,1,l),
(416,1,l),
(416,15,l),
(435,21,o),
(465,30,o),
(472,32,cs),
(529,48,o),
(533,91,o),
(540,141,c),
(541,248,o),
(543,445,o),
(543,478,cs),
(543,521,o),
(555,638,o),
(450,665,cs),
(398,679,l),
(398,700,l),
(678,700,l),
(678,679,l),
(652,672,ls),
(602,658,o),
(592,622,o),
(590,559,cs),
(581,311,l),
(581,307,o),
(582,215,o),
(582,142,c)
);
}
);
width = 737;
},
{
associatedMasterId = m01;
layerId = "7DD61A78-6FC2-47FD-B024-15D9943C22D9";
name = "Oct 6, 23 at 14:44";
shapes = (
{
closed = 1;
nodes = (
(551,326,l),
(147,662,l),
(191,647,l),
(191,543,l),
(191,407,o),
(185,172,o),
(191,86,cs),
(195,29,o),
(269,11,o),
(289,8,c),
(289,0,l),
(49,0,l),
(49,9,l),
(101,25,o),
(136,33,o),
(142,86,cs),
(150,162,o),
(155,514,o),
(155,545,cs),
(155,569,o),
(151,590,o),
(137,609,cs),
(123,628,o),
(88,662,o),
(53,669,cs),
(11,678,l),
(10,699,l),
(183,699,l),
(555,390,l)
);
},
{
closed = 1;
nodes = (
(582,29,o),
(656,11,o),
(676,8,c),
(676,0,l),
(436,0,l),
(436,9,l),
(472,20,ls),
(530,38,o),
(538,42,o),
(539,86,cs),
(544,249,o),
(543,445,o),
(543,478,cs),
(543,521,o),
(555,638,o),
(450,665,cs),
(398,679,l),
(398,700,l),
(678,700,l),
(678,679,l),
(652,672,ls),
(602,658,o),
(592,622,o),
(590,559,cs),
(581,311,l),
(581,307,o),
(582,219,o),
(582,86,cs)
);
}
);
width = 737;
},
{
associatedMasterId = m01;
layerId = "DE52C7DA-2E54-453C-B2E7-202C1B59D2F8";
name = "Oct 6, 23 at 14:46";
shapes = (
{
closed = 1;
nodes = (
(556,268,l),
(147,662,l),
(191,647,l),
(191,543,l),
(191,407,o),
(185,172,o),
(191,86,cs),
(195,29,o),
(269,11,o),
(289,8,c),
(289,0,l),
(49,0,l),
(49,9,l),
(101,25,o),
(136,33,o),
(142,86,cs),
(150,162,o),
(147,514,o),
(147,545,cs),
(147,627,o),
(104,670,o),
(10,688,c),
(10,700,l),
(183,700,l),
(554,345,l)
);
},
{
closed = 1;
nodes = (
(582,29,o),
(656,11,o),
(676,8,c),
(676,0,l),
(436,0,l),
(436,9,l),
(472,20,ls),
(530,38,o),
(538,42,o),
(539,86,cs),
(544,249,o),
(543,445,o),
(543,478,cs),
(543,521,o),
(555,638,o),
(450,665,cs),
(398,679,l),
(398,700,l),
(678,700,l),
(678,679,l),
(652,672,ls),
(602,658,o),
(592,622,o),
(590,559,cs),
(581,311,l),
(581,307,o),
(582,219,o),
(582,86,cs)
);
}
);
width = 737;
},
{
associatedMasterId = m01;
layerId = "A336B314-8EDC-40BD-B247-1D04F5AC2C4F";
name = "Oct 6, 23 at 14:48";
shapes = (
{
closed = 1;
nodes = (
(556,268,l),
(147,662,l),
(191,647,l),
(191,543,l),
(191,407,o),
(185,172,o),
(191,86,cs),
(195,29,o),
(269,11,o),
(289,8,c),
(289,0,l),
(49,0,l),
(49,9,l),
(101,25,o),
(136,33,o),
(142,86,cs),
(150,162,o),
(147,514,o),
(147,545,cs),
(147,627,o),
(104,670,o),
(10,688,c),
(10,700,l),
(183,700,l),
(554,345,l)
);
},
{
closed = 1;
nodes = (
(545,602,o),
(512,649,o),
(450,665,cs),
(398,679,l),
(398,700,l),
(678,700,l),
(678,679,l),
(652,672,ls),
(602,658,o),
(592,622,o),
(590,556,cs),
(590,525,o),
(586,162,o),
(594,86,cs),
(600,33,o),
(635,25,o),
(687,9,c),
(687,0,l),
(447,0,l),
(447,8,l),
(467,11,o),
(541,29,o),
(545,86,cs),
(551,172,o),
(545,407,o),
(545,543,cs)
);
}
);
width = 737;
},
{
associatedMasterId = m01;
layerId = "C2683EFD-431C-4318-8AAB-255B91B67E2B";
name = "Oct 6, 23 at 20:23";
shapes = (
{
closed = 1;
nodes = (
(496,218,l),
(147,612,l),
(191,647,l),
(191,543,l),
(191,407,o),
(185,172,o),
(191,86,cs),
(195,29,o),
(269,11,o),
(289,8,c),
(289,0,l),
(49,0,l),
(49,9,l),
(101,25,o),
(136,33,o),
(142,86,cs),
(150,162,o),
(147,514,o),
(147,545,cs),
(147,627,o),
(104,670,o),
(10,688,c),
(10,700,l),
(183,700,l),
(494,344,l)
);
},
{
closed = 1;
nodes = (
(485,667,o),
(439,675,o),
(387,691,c),
(387,700,l),
(627,700,l),
(627,692,l),
(607,689,o),
(529,671,o),
(529,614,cs),
(529,583,o),
(526,162,o),
(534,86,cs),
(540,33,o),
(575,25,o),
(627,9,c),
(627,0,l),
(387,0,l),
(387,8,l),
(407,11,o),
(481,29,o),
(485,86,cs),
(491,172,o),
(485,478,o),
(485,614,cs)
);
}
);
width = 637;
},
{
associatedMasterId = m01;
layerId = "83C3C29D-3080-4698-831C-F46DC26A49CE";
name = "Oct 6, 23 at 21:46";
shapes = (
{
closed = 1;
nodes = (
(476,336,l),
(127,672,l),
(171,650,l),
(171,543,ls),
(171,407,o),
(165,162,o),
(172,56,cs),
(175,19,o),
(249,11,o),
(269,8,c),
(269,0,l),
(29,0,l),
(29,9,l),
(81,25,o),
(116,23,o),
(120,56,cs),
(130,152,o),
(127,514,o),
(127,545,cs),
(127,629,o),
(104,674,o),
(10,692,c),
(10,700,l),
(163,700,l),
(474,407,l)
);
},
{
closed = 1;
nodes = (
(465,667,o),
(419,675,o),
(367,691,c),
(367,700,l),
(597,700,l),
(597,692,l),
(577,689,o),
(509,671,o),
(509,614,cs),
(509,583,o),
(506,152,o),
(516,56,cs),
(520,23,o),
(555,25,o),
(607,9,c),
(607,0,l),
(367,0,l),
(367,8,l),
(387,11,o),
(461,19,o),
(464,56,cs),
(471,162,o),
(465,478,o),
(465,614,cs)
);
}
);
width = 617;
},
{
associatedMasterId = m01;
layerId = "F127B3FA-414C-4E97-8D76-6E9EB0134113";
name = "Oct 12, 23 at 17:54";
shapes = (
{
closed = 1;
nodes = (
(456,328,l),
(107,692,l),
(151,670,l),
(151,543,ls),
(151,407,o),
(145,162,o),
(152,56,cs),
(155,19,o),
(229,11,o),
(249,8,c),
(249,0,l),
(19,0,l),
(19,9,l),
(71,25,o),
(106,23,o),
(110,56,cs),
(120,152,o),
(117,524,o),
(117,585,cs),
(117,639,o),
(94,674,o),
(0,692,c),
(0,700,l),
(143,700,l),
(454,377,l)
);
},
{
closed = 1;
nodes = (
(445,667,o),
(399,675,o),
(347,691,c),
(347,700,l),
(567,700,l),
(567,692,l),
(547,689,o),
(479,671,o),
(479,614,cs),
(479,583,o),
(476,152,o),
(486,56,cs),
(490,23,o),
(525,25,o),
(577,9,c),
(577,0,l),
(347,0,l),
(347,8,l),
(367,11,o),
(441,19,o),
(444,56,cs),
(451,162,o),
(445,478,o),
(445,614,cs)
);
}
);
width = 587;
},
{
associatedMasterId = m01;
layerId = "4AEDF165-F335-4D1C-8245-2674CF2D3694";
name = "Oct 13, 23 at 14:50";
shapes = (
{
closed = 1;
nodes = (
(466,330,l),
(304,529,l),
(107,692,l),
(151,670,l),
(151,543,ls),
(151,492,o),
(134,423,o),
(133,354,cs),
(132,240,o),
(148,122,o),
(152,56,cs),
(155,19,o),
(229,11,o),
(249,8,c),
(249,0,l),
(19,0,l),
(19,9,l),
(71,25,o),
(106,23,o),
(110,56,cs),
(115,107,o),
(133,236,o),
(133,354,cs),
(134,459,o),
(117,556,o),
(117,585,cs),
(117,639,o),
(94,674,o),
(0,692,c),
(0,700,l),
(143,700,l),
(282,529,l),
(464,379,l)
);
},
{
closed = 1;
nodes = (
(445,667,o),
(399,675,o),
(347,691,c),
(347,700,l),
(567,700,l),
(567,692,l),
(547,689,o),
(479,671,o),
(479,614,cs),
(479,598,o),
(464,480,o),
(465,355,cs),
(465,233,o),
(481,103,o),
(486,56,cs),
(490,23,o),
(525,25,o),
(577,9,c),
(577,0,l),
(347,0,l),
(347,8,l),
(367,11,o),
(441,19,o),
(444,56,cs),
(448,114,o),
(466,235,o),
(465,355,cs),
(464,454,o),
(445,553,o),
(445,614,cs)
);
}
);
width = 587;
}
);
unicode = 78;
},
{
glyphname = O;
lastChange = "2024-02-04 06:29:17 +0000";
layers = (
{
background = {
shapes = (
{
closed = 1;
nodes = (
(22,392,c),
(-9,160,o),
(89,-12,o),
(334,-12,cs),
(461,-12,o),
(625,59,o),
(669,310,c),
(622,115,o),
(530,24,o),
(373,24,cs),
(194,24,o),
(2,111,o)
);
}
);
};
layerId = m01;
shapes = (
{
closed = 1;
nodes = (
(670,596,o),
(522,714,o),
(345,714,cs),
(168,714,o),
(16,596,o),
(16,371,c),
(23,561,o),
(148,675,o),
(345,675,cs),
(542,675,o),
(663,561,o),
(670,352,c)
);
},
{
closed = 1;
nodes = (
(16,108,o),
(168,-9,o),
(345,-9,cs),
(522,-9,o),
(670,108,o),
(670,333,c),
(663,143,o),
(542,30,o),
(345,30,cs),
(148,30,o),
(23,143,o),
(16,352,c)
);
}
);
width = 686;
},
{
associatedMasterId = m01;
layerId = "49913F5A-D4B8-453D-930D-3FC4AD2C46AB";
name = "Oct 18, 23 at 20:19";
shapes = (
{
closed = 1;
nodes = (
(178,735,o),
(20,578,o),
(20,358,cs),
(20,126,o),
(199,0,o),
(440,0,cs),
(644,0,o),
(787,155,o),
(787,360,cs),
(787,580,o),
(626,735,o),
(406,735,cs)
);
},
{
closed = 1;
nodes = (
(523,707,o),
(676,546,o),
(667,340,cs),
(659,153,o),
(554,38,o),
(443,38,cs),
(308,38,o),
(130,156,o),
(140,378,cs),
(149,583,o),
(270,707,o),
(390,707,cs)
);
}
);
width = 807;
},
{
associatedMasterId = m01;
layerId = "A85AD24C-1293-4049-8D1C-D51CF16DB47B";
name = "Feb 4, 24 at 00:49";
shapes = (
{
closed = 1;
nodes = (
(167,695,o),
(15,543,o),
(15,345,cs),
(15,160,o),
(167,-1,o),
(363,-1,cs),
(550,-1,o),
(711,160,o),
(711,345,cs),
(711,543,o),
(550,695,o),
(363,695,cs)
);
},
{
closed = 1;
nodes = (
(550,702,o),
(655,534,o),
(655,345,cs),
(655,160,o),
(550,-13,o),
(363,-13,cs),
(176,-13,o),
(71,160,o),
(71,345,cs),
(71,534,o),
(176,702,o),
(363,702,cs)
);
}
);
width = 726;
},
{
associatedMasterId = m01;
layerId = "CC335ABD-041C-4957-AE47-1A0780970EC9";
name = "Feb 4, 24 at 01:19";
shapes = (
{
closed = 1;
nodes = (
(737,552,o),
(592,714,o),
(382,714,cs),
(234,714,o),
(69,629,o),
(44,403,c),
(77,600,o),
(231,683,o),
(370,683,cs),
(510,683,o),
(728,593,o),
(691,321,c)
);
},
{
closed = 1;
nodes = (
(42,392,c),
(11,160,o),
(109,-12,o),
(354,-12,cs),
(481,-12,o),
(645,59,o),
(689,310,c),
(652,115,o),
(550,24,o),
(393,24,cs),
(214,24,o),
(22,111,o)
);
}
);
width = 726;
}
);
metricRight = "=|";
unicode = 79;
},
{
glyphname = P;
lastChange = "2023-10-19 01:38:29 +0000";
layers = (
{
layerId = m01;
shapes = (
{
pos = (20,0);
ref = I;
},
{
closed = 1;
nodes = (
(269,700,l),
(327,700,ls),
(452,700,o),
(483,597,o),
(483,500,cs),
(483,403,o),
(438,295,o),
(324,295,cs),
(269,295,l),
(269,297,l),
(337,301,ls),
(439,307,o),
(539,390,o),
(539,500,cs),
(539,611,o),
(440,695,o),
(320,695,cs),
(269,696,l)
);
}
);
width = 547;
}
);
unicode = 80;
},
{
glyphname = Q;
lastChange = "2023-10-20 14:41:32 +0000";
layers = (
{
layerId = m01;
shapes = (
{
closed = 1;
nodes = (
(182,695,o),
(30,543,o),
(30,345,cs),
(30,160,o),
(182,-1,o),
(378,-1,cs),
(565,-1,o),
(726,160,o),
(726,345,cs),
(726,543,o),
(565,695,o),
(378,695,cs)
);
},
{
closed = 1;
nodes = (
(565,702,o),
(670,534,o),
(670,345,cs),
(670,160,o),
(565,-13,o),
(378,-13,cs),
(191,-13,o),
(86,160,o),
(86,345,cs),
(86,534,o),
(191,702,o),
(378,702,cs)
);
},
{
closed = 1;
nodes = (
(537,45,l),
(522,123,o),
(493,184,o),
(408,184,cs),
(238,184,o),
(267,71,o),
(277,14,c),
(268,12,l),
(268,86,o),
(306,207,o),
(399,207,cs),
(472,207,o),
(492,139,o),
(537,45,c)
);
},
{
closed = 1;
nodes = (
(539,35,l),
(552,-24,o),
(575,-72,o),
(654,-72,cs),
(720,-72,o),
(732,-40,o),
(757,-9,c),
(750,-4,l),
(719,-48,o),
(713,-82,o),
(654,-82,cs),
(593,-82,o),
(575,-33,o),
(539,35,c)
);
}
);
width = 756;
}
);
unicode = 81;
},
{
glyphname = R;
lastChange = "2024-02-04 07:40:34 +0000";
layers = (
{
layerId = m01;
shapes = (
{
closed = 1;
nodes = (
(111,680,o),
(40,689,o),
(20,692,c),
(20,700,l),
(250,700,l),
(250,691,l),
(239,688,o),
(170,674,o),
(157,644,cs),
(147,620,o),
(134,501,o),
(135,373,cs),
(135,250,o),
(148,119,o),
(158,56,cs),
(164,19,o),
(235,11,o),
(255,8,c),
(255,0,l),
(25,0,l),
(25,9,l),
(36,12,o),
(105,25,o),
(116,56,cs),
(126,84,o),
(135,231,o),
(136,373,cs),
(136,484,o),
(128,590,o),
(118,644,cs)
);
},
{
closed = 1;
nodes = (
(269,700,l),
(327,700,ls),
(452,700,o),
(468,619,o),
(468,543,cs),
(468,471,o),
(438,380,o),
(324,380,cs),
(269,380,l),
(269,382,l),
(337,386,ls),
(439,391,o),
(524,460,o),
(524,543,cs),
(524,630,o),
(440,696,o),
(320,697,cs),
(269,697,l)
);
},
{
closed = 1;
nodes = (
(535,56,ls),
(553,18,o),
(602,11,o),
(622,8,c),
(622,0,l),
(422,0,l),
(422,9,l),
(433,12,o),
(505,19,o),
(490,63,cs),
(395,343,l)
);
}
);
width = 642;
}
);
metricRight = "=|";
unicode = 82;
},
{
glyphname = S;
lastChange = "2023-10-07 04:22:15 +0000";
layers = (
{
layerId = m01;
shapes = (
{
closed = 1;
nodes = (
(120,704,o),
(54,614,o),
(54,557,cs),
(54,457,o),
(178,426,o),
(249,397,cs),
(343,358,o),
(437,307,o),
(437,189,cs),
(437,75,o),
(346,-16,o),
(232,-16,cs),
(87,-16,o),
(39,164,o),
(37,220,c),
(30,218,l),
(36,164,o),
(45,77,o),
(48,55,c),
(73,38,o),
(133,-4,o),
(217,-4,cs),
(372,-4,o),
(458,123,o),
(458,218,cs),
(458,332,o),
(400,387,o),
(256,449,cs),
(206,470,o),
(100,508,o),
(100,584,cs),
(100,665,o),
(157,716,o),
(266,716,cs),
(396,716,o),
(421,585,o),
(414,494,c),
(421,493,l),
(433,660,l),
(384,687,o),
(339,704,o),
(280,704,cs)
);
}
);
width = 484;
},
{
associatedMasterId = m01;
layerId = "C3198A77-2CB3-4A52-885C-14314DCBC4D4";
name = "Oct 6, 23 at 20:58";
shapes = (
{
closed = 1;
nodes = (
(123,720,o),
(55,604,o),
(55,515,cs),
(55,450,o),
(109,397,o),
(137,375,cs),
(165,353,o),
(260,300,o),
(280,286,cs),
(300,272,o),
(371,231,o),
(371,156,cs),
(371,81,o),
(313,18,o),
(240,18,cs),
(167,18,o),
(110,70,o),
(93,83,cs),
(76,96,o),
(28,194,o),
(27,220,c),
(10,216,l),
(16,160,o),
(26,69,o),
(29,47,c),
(55,29,o),
(150,-15,o),
(209,-15,cs),
(385,-15,o),
(474,80,o),
(474,209,cs),
(474,289,o),
(391,345,o),
(371,363,cs),
(351,381,o),
(221,456,o),
(210,465,cs),
(199,474,o),
(153,504,o),
(153,571,cs),
(153,638,o),
(195,687,o),
(275,687,cs),
(333,687,o),
(356,659,o),
(371,646,cs),
(386,633,o),
(420,556,o),
(417,522,c),
(435,521,l),
(448,674,l),
(397,702,o),
(350,720,o),
(289,720,cs)
);
}
);
width = 484;
},
{
associatedMasterId = m01;
layerId = "0158488B-B116-4844-BB91-3A355F4C0304";
name = "Oct 6, 23 at 23:47";
shapes = (
{
closed = 1;
nodes = (
(123,720,o),
(55,619,o),
(55,537,cs),
(55,458,o),
(98,412,o),
(137,390,cs),
(176,368,o),
(293,325,o),
(331,310,cs),
(369,295,o),
(452,239,o),
(452,156,cs),
(452,67,o),
(358,-27,o),
(240,-27,cs),
(89,-27,o),
(39,160,o),
(37,218,c),
(30,216,l),
(36,160,o),
(46,69,o),
(49,47,c),
(75,29,o),
(137,-15,o),
(224,-15,cs),
(385,-15,o),
(474,80,o),
(474,188,cs),
(474,278,o),
(415,320,o),
(371,343,cs),
(327,366,o),
(195,417,o),
(160,445,cs),
(125,474,o),
(103,491,o),
(103,571,cs),
(103,653,o),
(162,732,o),
(275,732,cs),
(410,732,o),
(435,596,o),
(428,502,c),
(435,501,l),
(448,674,l),
(397,702,o),
(350,720,o),
(289,720,cs)
);
}
);
width = 484;
}
);
unicode = 83;
},
{
glyphname = T;
lastChange = "2023-10-13 18:53:17 +0000";
layers = (
{
layerId = m01;
shapes = (
{
closed = 1;
nodes = (
(272,685,l),
(272,662,o),
(247,529,o),
(248,391,cs),
(248,258,o),
(263,119,o),
(273,56,cs),
(279,19,o),
(350,11,o),
(370,8,c),
(370,0,l),
(140,0,l),
(140,9,l),
(151,12,o),
(220,25,o),
(231,56,cs),
(241,84,o),
(248,239,o),
(248,391,cs),
(249,512,o),
(233,631,o),
(233,685,c),
(238,677,l),
(136,677,ls),
(69,677,o),
(45,657,o),
(26,605,cs),
(6,551,l),
(0,552,l),
(36,731,l),
(44,731,l),
(40,687,l),
(32,706,l),
(173,669,o),
(316,666,o),
(459,706,c),
(457,691,l),
(457,730,l),
(468,730,l),
(502,552,l),
(496,551,l),
(476,605,ls),
(457,657,o),
(433,677,o),
(366,677,cs),
(266,677,l)
);
}
);
width = 502;
},
{
associatedMasterId = m01;
layerId = "A4F89D81-EEF6-4C18-8BA9-2A15A1FCC8EA";
name = "Oct 4, 23 at 22:29";
shapes = (
{
closed = 0;
nodes = (
(404,596,l)
);
},
{
closed = 1;
nodes = (
(405,34,o),
(479,26,o),
(488,24,cs),
(497,22,o),
(518,21,o),
(533,19,c),
(533,0,l),
(185,0,l),
(185,17,l),
(195,17,o),
(225,27,o),
(265,41,cs),
(305,55,o),
(310,114,o),
(310,125,cs),
(310,136,o),
(308,483,o),
(308,576,cs),
(308,669,o),
(311,670,o),
(308,670,c),
(317,661,l),
(273,661,o),
(214,662,o),
(185,662,cs),
(156,662,o),
(123,652,o),
(111,644,cs),
(99,636,o),
(68,609,o),
(59,595,c),
(55,587,l),
(37,533,l),
(20,533,l),
(36,731,l),
(48,731,l),
(76,697,l),
(61,696,l),
(61,702,l),
(638,697,l),
(621,691,l),
(661,730,l),
(674,730,l),
(688,533,l),
(673,532,l),
(671,540,o),
(669,544,o),
(666,555,cs),
(663,566,o),
(648,606,o),
(629,622,cs),
(610,638,o),
(594,651,o),
(559,655,c),
(395,661,l),
(408,671,l),
(405,124,l)
);
}
);
width = 708;
},
{
associatedMasterId = m01;
layerId = "37564637-C552-431C-BCBA-702D8328EB4E";
name = "Oct 6, 23 at 20:34";
shapes = (
{
closed = 0;
nodes = (
(354,596,l)
);
},
{
closed = 1;
nodes = (
(355,34,o),
(429,26,o),
(438,24,cs),
(447,22,o),
(468,21,o),
(483,19,c),
(483,0,l),
(135,0,l),
(135,17,l),
(145,17,o),
(175,27,o),
(215,41,cs),
(255,55,o),
(260,114,o),
(260,125,cs),
(260,136,o),
(258,483,o),
(258,576,c),
(258,670,l),
(267,661,l),
(223,661,o),
(204,662,o),
(175,662,cs),
(146,662,o),
(113,652,o),
(101,644,cs),
(89,636,o),
(58,609,o),
(49,595,c),
(45,587,l),
(27,533,l),
(10,533,l),
(26,731,l),
(38,731,l),
(66,697,l),
(51,696,l),
(51,702,l),
(548,697,l),
(531,691,l),
(571,730,l),
(584,730,l),
(598,533,l),
(583,532,l),
(581,540,o),
(579,544,o),
(576,555,cs),
(573,566,o),
(558,606,o),
(539,622,cs),
(520,638,o),
(504,651,o),
(469,655,c),
(345,661,l),
(358,671,l),
(355,124,l)
);
}
);
width = 608;
},
{
associatedMasterId = m01;
layerId = "B5A5DBDA-849F-4521-975B-ED352F8FED72";
name = "Oct 6, 23 at 21:48";
shapes = (
{
closed = 1;
nodes = (
(292,685,l),
(292,639,o),
(293,184,o),
(293,56,cs),
(293,19,o),
(370,11,o),
(390,8,c),
(390,0,l),
(150,0,l),
(150,9,l),
(202,25,o),
(241,23,o),
(241,56,cs),
(241,106,o),
(243,562,o),
(243,685,c),
(248,677,l),
(146,677,ls),
(79,677,o),
(55,657,o),
(36,605,cs),
(16,551,l),
(10,552,l),
(46,731,l),
(54,731,l),
(50,687,l),
(42,700,l),
(479,700,l),
(477,691,l),
(477,730,l),
(488,730,l),
(522,552,l),
(516,551,l),
(496,605,ls),
(477,657,o),
(453,677,o),
(386,677,cs),
(286,677,l)
);
}
);
width = 532;
},
{
associatedMasterId = m01;
layerId = "8E59CC9C-0241-4C98-82AF-FEF680F49F39";
name = "Oct 12, 23 at 17:54";
shapes = (
{
closed = 1;
nodes = (
(272,685,l),
(272,639,o),
(273,184,o),
(273,56,cs),
(273,19,o),
(350,11,o),
(370,8,c),
(370,0,l),
(140,0,l),
(140,9,l),
(192,25,o),
(231,23,o),
(231,56,cs),
(231,106,o),
(233,562,o),
(233,685,c),
(238,677,l),
(136,677,ls),
(69,677,o),
(45,657,o),
(26,605,cs),
(6,551,l),
(0,552,l),
(36,731,l),
(44,731,l),
(40,687,l),
(32,700,l),
(459,700,l),
(457,691,l),
(457,730,l),
(468,730,l),
(502,552,l),
(496,551,l),
(476,605,ls),
(457,657,o),
(433,677,o),
(366,677,cs),
(266,677,l)
);
}
);
width = 502;
}
);
unicode = 84;
},
{
glyphname = U;
lastChange = "2023-10-19 00:13:47 +0000";
layers = (
{
layerId = m01;
shapes = (
{
closed = 1;
nodes = (
(97,94,o),
(97,217,cs),
(97,241,o),
(101,347,o),
(101,439,cs),
(101,546,o),
(93,590,o),
(83,644,cs),
(76,680,o),
(25,689,o),
(5,692,c),
(5,700,l),
(195,700,l),
(195,691,l),
(184,688,o),
(135,673,o),
(122,644,cs),
(112,621,o),
(101,568,o),
(101,456,cs),
(101,232,o),
(109,7,o),
(279,7,cs),
(449,7,o),
(459,203,o),
(459,437,cs),
(459,544,o),
(451,592,o),
(441,644,cs),
(434,680,o),
(383,689,o),
(363,692,c),
(363,700,l),
(553,700,l),
(553,691,l),
(542,688,o),
(493,673,o),
(480,644,cs),
(470,621,o),
(459,567,o),
(459,457,cs),
(459,369,o),
(463,251,o),
(463,217,cs),
(463,83,o),
(398,13,o),
(279,13,cs),
(160,13,o)
);
}
);
width = 578;
}
);
unicode = 85;
},
{
glyphname = V;
lastChange = "2023-10-20 20:47:28 +0000";
layers = (
{
layerId = m01;
shapes = (
{
closed = 1;
nodes = (
(313,0,l),
(220,327,l),
(183,469,o),
(123,616,o),
(106,644,cs),
(87,675,o),
(14,688,o),
(2,691,c),
(0,700,l),
(230,700,l),
(232,692,l),
(213,689,o),
(144,681,o),
(148,644,cs),
(154,581,o),
(188,450,o),
(220,327,c),
(336,12,l),
(328,13,l),
(437,327,l),
(469,450,o),
(511,581,o),
(517,644,cs),
(521,681,o),
(452,689,o),
(433,692,c),
(435,700,l),
(665,700,l),
(663,691,l),
(651,688,o),
(578,675,o),
(559,644,cs),
(542,616,o),
(474,469,o),
(437,327,c),
(336,0,l)
);
}
);
width = 665;
}
);
unicode = 86;
},
{
glyphname = W;
lastChange = "2023-10-23 16:48:26 +0000";
layers = (
{
layerId = m01;
shapes = (
{
closed = 1;
nodes = (
(440,370,l),
(554,25,l),
(669,367,l),
(701,490,o),
(733,581,o),
(739,644,cs),
(743,681,o),
(683,691,o),
(663,691,cs),
(643,691,o),
(578,675,o),
(559,644,cs),
(542,616,o),
(498,515,o),
(441,373,c),
(483,496,o),
(511,581,o),
(517,644,cs),
(520,676,o),
(470,690,o),
(444,690,cs),
(418,690,o),
(367,676,o),
(370,644,cs),
(376,584,o),
(434,389,o),
(439,373,c),
(439,373,l),
(394,488,o),
(388,546,o),
(328,644,cs),
(309,675,o),
(254,692,o),
(228,692,cs),
(210,692,o),
(144,681,o),
(148,644,cs),
(154,581,o),
(179,490,o),
(211,367,c),
(332,25,l),
(437,370,l),
(437,370,l),
(336,0,l),
(313,0,l),
(211,367,l),
(174,509,o),
(123,616,o),
(106,644,cs),
(87,675,o),
(14,688,o),
(2,691,c),
(2,700,l),
(885,700,l),
(885,691,l),
(873,688,o),
(800,675,o),
(781,644,cs),
(764,616,o),
(706,509,o),
(669,367,c),
(558,0,l),
(535,0,l),
(440,370,l)
);
}
);
width = 887;
}
);
unicode = 87;
},
{
glyphname = X;
lastChange = "2023-10-20 21:59:58 +0000";
layers = (
{
layerId = m01;
shapes = (
{
closed = 1;
nodes = (
(114,681,o),
(51,689,o),
(30,692,c),
(30,700,l),
(250,700,l),
(250,691,l),
(241,688,o),
(181,674,o),
(181,650,cs),
(181,617,o),
(262,493,o),
(335,383,cs),
(533,84,ls),
(578,16,o),
(632,11,o),
(653,8,c),
(653,0,l),
(433,0,l),
(433,9,l),
(462,12,o),
(510,24,o),
(510,56,cs),
(510,90,o),
(377,326,o),
(335,383,cs),
(150,633,ls)
);
},
{
closed = 1;
nodes = (
(482,595,o),
(408,512,o),
(348,414,cs),
(253,258,o),
(153,91,o),
(153,56,cs),
(153,24,o),
(201,12,o),
(230,9,c),
(230,0,l),
(0,0,l),
(0,8,l),
(21,11,o),
(82,19,o),
(119,66,cs),
(164,124,o),
(266,279,o),
(346,410,cs),
(418,527,o),
(482,617,o),
(482,649,cs),
(482,676,o),
(422,688,o),
(413,691,c),
(413,700,l),
(633,700,l),
(633,692,l),
(612,689,o),
(550,680,o),
(513,634,cs)
);
}
);
width = 663;
}
);
unicode = 88;
},
{
glyphname = Y;
lastChange = "2024-02-04 07:40:54 +0000";
layers = (
{
layerId = m01;
shapes = (
{
closed = 1;
nodes = (
(267,362,l),
(168,513,l),
(164,520,o),
(85,616,o),
(71,632,cs),
(38,670,o),
(-18,688,o),
(-30,691,c),
(-30,700,l),
(190,700,l),
(190,692,l),
(171,689,o),
(108,681,o),
(106,644,cs),
(102,581,o),
(156,532,o),
(168,513,c),
(268,378,l),
(355,493,l),
(371,517,o),
(419,581,o),
(425,644,cs),
(429,681,o),
(360,689,o),
(341,692,c),
(341,700,l),
(561,700,l),
(561,691,l),
(549,688,o),
(492,670,o),
(467,644,cs),
(440,616,o),
(372,518,o),
(355,493,cs),
(268,362,l)
);
},
{
closed = 1;
nodes = (
(268,250,o),
(281,119,o),
(291,56,cs),
(297,19,o),
(368,11,o),
(388,8,c),
(388,0,l),
(158,0,l),
(158,9,l),
(169,12,o),
(238,25,o),
(249,56,cs),
(259,84,o),
(268,231,o),
(268,373,c)
);
}
);
width = 531;
}
);
metricRight = "=|";
unicode = 89;
},
{
glyphname = Z;
lastChange = "2023-10-23 16:34:09 +0000";
layers = (
{
layerId = m01;
shapes = (
{
closed = 1;
nodes = (
(324,16,l),
(374,16,o),
(441,15,o),
(484,50,cs),
(518,78,o),
(551,167,o),
(559,185,c),
(565,182,l),
(513,0,l),
(0,0,l),
(0,8,l),
(23,41,o),
(163,209,o),
(309,410,c),
(398,524,o),
(455,613,o),
(496,684,c),
(257,684,ls),
(207,684,o),
(140,685,o),
(97,650,cs),
(63,622,o),
(30,533,o),
(22,516,c),
(16,518,l),
(68,700,l),
(565,700,l),
(565,692,l),
(518,650,o),
(420,553,o),
(309,410,c),
(173,224,o),
(127,130,o),
(46,16,c)
);
}
);
width = 565;
}
);
unicode = 90;
},
{
glyphname = zero.lf;
lastChange = "2023-10-25 03:49:39 +0000";
layers = (
{
layerId = m01;
shapes = (
{
closed = 1;
nodes = (
(202,701,o),
(76,614,o),
(76,347,cs),
(76,99,o),
(202,2,o),
(323,2,cs),
(439,2,o),
(571,99,o),
(571,347,cs),
(571,614,o),
(439,701,o),
(323,701,cs)
);
},
{
closed = 1;
nodes = (
(441,708,o),
(532,601,o),
(532,347,cs),
(532,99,o),
(441,-9,o),
(323,-9,cs),
(206,-9,o),
(115,99,o),
(115,347,cs),
(115,601,o),
(206,708,o),
(323,708,cs)
);
}
);
width = 647;
}
);
},
{
glyphname = one.lf;
lastChange = "2023-10-25 03:22:35 +0000";
layers = (
{
layerId = m01;
shapes = (
{
closed = 1;
nodes = (
(123,373,l),
(123,250,o),
(133,119,o),
(143,56,cs),
(149,19,o),
(220,11,o),
(240,8,c),
(240,0,l),
(10,0,l),
(10,9,l),
(21,12,o),
(90,25,o),
(101,56,cs),
(111,84,o),
(123,231,o),
(123,373,cs),
(123,409,o),
(125,637,o),
(94,668,cs),
(76,686,o),
(40,690,o),
(25,692,c),
(25,700,l),
(134,700,l)
);
}
);
width = 250;
}
);
},
{
glyphname = two.lf;
lastChange = "2023-10-25 03:35:03 +0000";
layers = (
{
layerId = m01;
shapes = (
{
closed = 1;
nodes = (
(240,0,l),
(244,0,l),
(343,14,o),
(394,34,o),
(429,69,cs),
(459,97,o),
(489,160,o),
(498,185,c),
(505,181,l),
(462,0,l),
(10,0,l),
(10,9,l),
(263,273,ls),
(317,329,o),
(433,443,o),
(433,563,cs),
(433,631,o),
(381,702,o),
(281,702,cs),
(173,702,o),
(75,594,o),
(44,525,c),
(36,528,l),
(70,600,o),
(158,684,o),
(289,684,cs),
(380,684,o),
(476,640,o),
(476,556,cs),
(476,443,o),
(340,365,o),
(264,272,cs),
(61,22,l)
);
}
);
width = 515;
}
);
},
{
glyphname = three.lf;
lastChange = "2023-10-25 03:51:07 +0000";
layers = (
{
background = {
shapes = (
{
closed = 1;
nodes = (
(277,417,l),
(351,440,o),
(405,497,o),
(405,553,cs),
(405,630,o),
(321,687,o),
(219,691,cs),
(150,694,l),
(150,700,l),
(208,700,ls),
(342,700,o),
(359,619,o),
(359,553,cs),
(359,510,o),
(340,446,o),
(277,416,c)
);
}
);
};
layerId = m01;
shapes = (
{
closed = 1;
nodes = (
(362,413,o),
(434,324,o),
(434,210,cs),
(434,112,o),
(330,21,o),
(189,16,cs),
(127,14,o),
(70,24,o),
(12,51,c),
(10,48,l),
(70,12,o),
(129,0,o),
(191,0,cs),
(330,0,o),
(398,106,o),
(398,210,cs),
(398,322,o),
(281,431,o),
(104,386,c)
);
},
{
closed = 1;
nodes = (
(104,386,l),
(138,394,o),
(365,409,o),
(365,575,cs),
(365,637,o),
(326,702,o),
(233,702,cs),
(140,702,o),
(50,615,o),
(18,553,c),
(11,556,l),
(45,621,o),
(126,686,o),
(241,686,cs),
(326,686,o),
(406,645,o),
(406,569,cs),
(406,455,o),
(270,430,o),
(103,394,c)
);
}
);
width = 444;
},
{
associatedMasterId = m01;
layerId = "9D4F5EC0-4DA3-4E1E-9081-49CCB0B6D670";
name = "Oct 24, 23 at 23:25";
shapes = (
{
closed = 1;
nodes = (
(354,401,l),
(466,387,o),
(507,322,o),
(507,210,cs),
(507,106,o),
(442,0,o),
(310,0,cs),
(282,0,l),
(282,4,l),
(308,5,ls),
(443,10,o),
(543,106,o),
(543,210,cs),
(543,324,o),
(463,383,o),
(350,397,c)
);
},
{
closed = 1;
nodes = (
(396,417,l),
(470,440,o),
(524,497,o),
(524,553,cs),
(524,630,o),
(440,687,o),
(338,691,cs),
(269,694,l),
(269,700,l),
(327,700,ls),
(461,700,o),
(478,619,o),
(478,553,cs),
(478,510,o),
(459,446,o),
(396,416,c)
);
}
);
width = 600;
}
);
},
{
glyphname = zero.osf;
lastChange = "2023-10-25 02:59:43 +0000";
layers = (
{
layerId = m01;
shapes = (
{
closed = 1;
nodes = (
(139,503,o),
(10,401,o),
(10,249,cs),
(10,108,o),
(139,-1,o),
(281,-1,cs),
(418,-1,o),
(553,108,o),
(553,249,cs),
(553,401,o),
(418,503,o),
(281,503,cs)
);
},
{
closed = 1;
nodes = (
(420,508,o),
(513,394,o),
(513,249,cs),
(513,108,o),
(420,-9,o),
(281,-9,cs),
(143,-9,o),
(50,108,o),
(50,249,cs),
(50,394,o),
(143,508,o),
(281,508,cs)
);
}
);
width = 563;
}
);
},
{
glyphname = two.osf;
lastChange = "2023-10-25 02:39:16 +0000";
layers = (
{
guides = (
{
angle = 254.0546;
pos = (429,91);
}
);
layerId = m01;
shapes = (
{
closed = 1;
nodes = (
(217,0,l),
(288,10,o),
(333,25,o),
(364,50,cs),
(390,71,o),
(417,117,o),
(425,135,c),
(431,132,l),
(393,0,l),
(10,0,l),
(10,8,l),
(240,193,ls),
(282,223,o),
(376,284,o),
(376,372,cs),
(376,460,o),
(332,512,o),
(240,512,cs),
(148,512,o),
(66,410,o),
(36,345,c),
(30,347,l),
(61,417,o),
(144,499,o),
(240,499,cs),
(336,499,o),
(414,467,o),
(414,380,cs),
(414,301,o),
(309,248,o),
(252,201,cs),
(56,16,l)
);
}
);
width = 441;
}
);
},
{
glyphname = three.osf;
lastChange = "2023-10-25 02:36:57 +0000";
layers = (
{
layerId = m01;
shapes = (
{
closed = 1;
nodes = (
(136,240,ls),
(187,259,o),
(365,300,o),
(365,394,cs),
(365,457,o),
(297,499,o),
(201,499,cs),
(115,499,o),
(44,427,o),
(11,377,c),
(17,375,l),
(37,410,o),
(119,512,o),
(201,512,cs),
(293,512,o),
(327,450,o),
(327,399,cs),
(327,299,o),
(153,238,o),
(76,213,c),
(149,219,o),
(393,215,o),
(393,96,cs),
(393,-67,o),
(61,-138,o),
(10,-148,c),
(10,-150,l),
(45,-144,o),
(355,-123,o),
(355,47,cs),
(355,229,o),
(150,231,o),
(68,211,c),
(68,215,l)
);
}
);
width = 403;
}
);
},
